<svg id="Capa_1" enable-background="new 0 0 512 512" height="512" viewBox="0 0 512 512" width="512" xmlns="http://www.w3.org/2000/svg"><g><path d="m0 43.667v369.667c0 30.327 24.673 55 55 55h402c30.327 0 55-24.673 55-55v-369.667zm482 369.667c0 13.785-11.215 25-25 25h-402c-13.785 0-25-11.215-25-25v-265h452zm-452-339.667h51v44.667h-51zm452 44.667h-371v-44.667h371z"/><path d="m172.267 342.366c10.499 0 20.223-3.358 28.178-9.04l48.445 25.692c-.27 2.069-.424 4.174-.424 6.316 0 26.798 21.802 48.6 48.601 48.6 26.798 0 48.6-21.802 48.6-48.6s-21.802-48.6-48.6-48.6c-13.863 0-26.379 5.844-35.241 15.186l-43.387-23.009c1.568-4.77 2.428-9.857 2.428-15.144 0-5.388-.895-10.568-2.521-15.416l43.658-23.415c8.852 9.232 21.293 14.999 35.063 14.999 26.798 0 48.6-21.802 48.6-48.6s-21.802-48.6-48.6-48.6c-26.799 0-48.601 21.802-48.601 48.6 0 2.23.164 4.422.457 6.574l-48.717 26.128c-7.91-5.579-17.545-8.87-27.939-8.87-26.798 0-48.6 21.802-48.6 48.6 0 26.797 21.802 48.599 48.6 48.599zm18.6-48.6c0 10.256-8.344 18.6-18.6 18.6s-18.6-8.344-18.6-18.6 8.344-18.6 18.6-18.6 18.6 8.344 18.6 18.6zm106.2 52.968c10.256 0 18.6 8.344 18.6 18.6s-8.344 18.6-18.6 18.6c-10.257 0-18.601-8.344-18.601-18.6 0-10.257 8.344-18.6 18.601-18.6zm-18.601-125.4c0-10.256 8.344-18.6 18.601-18.6 10.256 0 18.6 8.344 18.6 18.6s-8.344 18.6-18.6 18.6c-10.257-.001-18.601-8.344-18.601-18.6z"/></g></svg>